<svg xmlns="http://www.w3.org/2000/svg" xmlns:xlink="http://www.w3.org/1999/xlink" width="100" zoomAndPan="magnify" viewBox="0 0 200 500" height="250" preserveAspectRatio="xMidYMid meet" version="1.0"><defs><clipPath id="44d3ea1379"><path d="M 110 54 L 150 54 L 150 150 L 110 150 Z M 110 54 " clip-rule="nonzero"/></clipPath><clipPath id="5c21851c46"><path d="M 75 0 C 116.421875 0 150 33.578125 150 75 C 150 116.421875 116.421875 150 75 150 C 33.578125 150 0 116.421875 0 75 C 0 33.578125 33.578125 0 75 0 Z M 75 0 " clip-rule="evenodd"/></clipPath><clipPath id="fd44f6cbfe"><path d="M 111 55 L 150 55 L 150 150 L 111 150 Z M 111 55 " clip-rule="nonzero"/></clipPath><clipPath id="37ea71ba2d"><path d="M 75 0 C 116.421875 0 150 33.578125 150 75 C 150 116.421875 116.421875 150 75 150 C 33.578125 150 0 116.421875 0 75 C 0 33.578125 33.578125 0 75 0 Z M 75 0 " clip-rule="evenodd"/></clipPath><clipPath id="52ba8cf043"><path d="M 36 58 L 150 58 L 150 150 L 36 150 Z M 36 58 " clip-rule="nonzero"/></clipPath><clipPath id="218115d301"><path d="M 75 0 C 116.421875 0 150 33.578125 150 75 C 150 116.421875 116.421875 150 75 150 C 33.578125 150 0 116.421875 0 75 C 0 33.578125 33.578125 0 75 0 Z M 75 0 " clip-rule="evenodd"/></clipPath><clipPath id="d51db705d0"><path d="M 72 58 L 150 58 L 150 150 L 72 150 Z M 72 58 " clip-rule="nonzero"/></clipPath><clipPath id="ecb245d0b9"><path d="M 75 0 C 116.421875 0 150 33.578125 150 75 C 150 116.421875 116.421875 150 75 150 C 33.578125 150 0 116.421875 0 75 C 0 33.578125 33.578125 0 75 0 Z M 75 0 " clip-rule="evenodd"/></clipPath><clipPath id="85f660c35b"><path d="M 95 86 L 150 86 L 150 150 L 95 150 Z M 95 86 " clip-rule="nonzero"/></clipPath><clipPath id="1389031df3"><path d="M 75 0 C 116.421875 0 150 33.578125 150 75 C 150 116.421875 116.421875 150 75 150 C 33.578125 150 0 116.421875 0 75 C 0 33.578125 33.578125 0 75 0 Z M 75 0 " clip-rule="evenodd"/></clipPath><clipPath id="3c0f656dc5"><path d="M 80 102 L 150 102 L 150 150 L 80 150 Z M 80 102 " clip-rule="nonzero"/></clipPath><clipPath id="64c80b7a3e"><path d="M 75 0 C 116.421875 0 150 33.578125 150 75 C 150 116.421875 116.421875 150 75 150 C 33.578125 150 0 116.421875 0 75 C 0 33.578125 33.578125 0 75 0 Z M 75 0 " clip-rule="evenodd"/></clipPath><clipPath id="fb09c96036"><path d="M 75 89 L 150 89 L 150 150 L 75 150 Z M 75 89 " clip-rule="nonzero"/></clipPath><clipPath id="f7544c8bbe"><path d="M 75 0 C 116.421875 0 150 33.578125 150 75 C 150 116.421875 116.421875 150 75 150 C 33.578125 150 0 116.421875 0 75 C 0 33.578125 33.578125 0 75 0 Z M 75 0 " clip-rule="evenodd"/></clipPath><clipPath id="bc1afc913b"><path d="M 83 97 L 150 97 L 150 150 L 83 150 Z M 83 97 " clip-rule="nonzero"/></clipPath><clipPath id="4d066c9545"><path d="M 75 0 C 116.421875 0 150 33.578125 150 75 C 150 116.421875 116.421875 150 75 150 C 33.578125 150 0 116.421875 0 75 C 0 33.578125 33.578125 0 75 0 Z M 75 0 " clip-rule="evenodd"/></clipPath><clipPath id="e950fe71b2"><path d="M 96 44 L 150 44 L 150 150 L 96 150 Z M 96 44 " clip-rule="nonzero"/></clipPath><clipPath id="eef7275a3f"><path d="M 75 0 C 116.421875 0 150 33.578125 150 75 C 150 116.421875 116.421875 150 75 150 C 33.578125 150 0 116.421875 0 75 C 0 33.578125 33.578125 0 75 0 Z M 75 0 " clip-rule="evenodd"/></clipPath><clipPath id="0fa5379b50"><path d="M 94 88 L 150 88 L 150 150 L 94 150 Z M 94 88 " clip-rule="nonzero"/></clipPath><clipPath id="37d6ca1f71"><path d="M 75 0 C 116.421875 0 150 33.578125 150 75 C 150 116.421875 116.421875 150 75 150 C 33.578125 150 0 116.421875 0 75 C 0 33.578125 33.578125 0 75 0 Z M 75 0 " clip-rule="evenodd"/></clipPath><clipPath id="f9ab308dcf"><path d="M 97 46 L 150 46 L 150 150 L 97 150 Z M 97 46 " clip-rule="nonzero"/></clipPath><clipPath id="88bb396cbb"><path d="M 75 0 C 116.421875 0 150 33.578125 150 75 C 150 116.421875 116.421875 150 75 150 C 33.578125 150 0 116.421875 0 75 C 0 33.578125 33.578125 0 75 0 Z M 75 0 " clip-rule="evenodd"/></clipPath><clipPath id="6363554c46"><path d="M 100 97 L 150 97 L 150 150 L 100 150 Z M 100 97 " clip-rule="nonzero"/></clipPath><clipPath id="87e8ad285b"><path d="M 75 0 C 116.421875 0 150 33.578125 150 75 C 150 116.421875 116.421875 150 75 150 C 33.578125 150 0 116.421875 0 75 C 0 33.578125 33.578125 0 75 0 Z M 75 0 " clip-rule="evenodd"/></clipPath><clipPath id="5cdfb83b87"><path d="M 111 57 L 150 57 L 150 150 L 111 150 Z M 111 57 " clip-rule="nonzero"/></clipPath><clipPath id="5b191bb7b0"><path d="M 75 0 C 116.421875 0 150 33.578125 150 75 C 150 116.421875 116.421875 150 75 150 C 33.578125 150 0 116.421875 0 75 C 0 33.578125 33.578125 0 75 0 Z M 75 0 " clip-rule="evenodd"/></clipPath><clipPath id="7a2893399b"><path d="M 108 95 L 150 95 L 150 150 L 108 150 Z M 108 95 " clip-rule="nonzero"/></clipPath><clipPath id="af3cdd7a5f"><path d="M 75 0 C 116.421875 0 150 33.578125 150 75 C 150 116.421875 116.421875 150 75 150 C 33.578125 150 0 116.421875 0 75 C 0 33.578125 33.578125 0 75 0 Z M 75 0 " clip-rule="evenodd"/></clipPath><clipPath id="2052bb092c"><path d="M 70 104 L 150 104 L 150 150 L 70 150 Z M 70 104 " clip-rule="nonzero"/></clipPath><clipPath id="cf70fea75e"><path d="M 75 0 C 116.421875 0 150 33.578125 150 75 C 150 116.421875 116.421875 150 75 150 C 33.578125 150 0 116.421875 0 75 C 0 33.578125 33.578125 0 75 0 Z M 75 0 " clip-rule="evenodd"/></clipPath><clipPath id="c74bedbd96"><path d="M 69 103 L 150 103 L 150 150 L 69 150 Z M 69 103 " clip-rule="nonzero"/></clipPath><clipPath id="dbbc72b00f"><path d="M 75 0 C 116.421875 0 150 33.578125 150 75 C 150 116.421875 116.421875 150 75 150 C 33.578125 150 0 116.421875 0 75 C 0 33.578125 33.578125 0 75 0 Z M 75 0 " clip-rule="evenodd"/></clipPath><clipPath id="77609a2e4d"><path d="M 66 102 L 150 102 L 150 150 L 66 150 Z M 66 102 " clip-rule="nonzero"/></clipPath><clipPath id="5d8a417431"><path d="M 75 0 C 116.421875 0 150 33.578125 150 75 C 150 116.421875 116.421875 150 75 150 C 33.578125 150 0 116.421875 0 75 C 0 33.578125 33.578125 0 75 0 Z M 75 0 " clip-rule="evenodd"/></clipPath><clipPath id="806ddceaa2"><path d="M 49 97 L 150 97 L 150 150 L 49 150 Z M 49 97 " clip-rule="nonzero"/></clipPath><clipPath id="a38fb2498e"><path d="M 75 0 C 116.421875 0 150 33.578125 150 75 C 150 116.421875 116.421875 150 75 150 C 33.578125 150 0 116.421875 0 75 C 0 33.578125 33.578125 0 75 0 Z M 75 0 " clip-rule="evenodd"/></clipPath><clipPath id="47b3364b50"><path d="M 41 97 L 150 97 L 150 150 L 41 150 Z M 41 97 " clip-rule="nonzero"/></clipPath><clipPath id="36641f5388"><path d="M 75 0 C 116.421875 0 150 33.578125 150 75 C 150 116.421875 116.421875 150 75 150 C 33.578125 150 0 116.421875 0 75 C 0 33.578125 33.578125 0 75 0 Z M 75 0 " clip-rule="evenodd"/></clipPath><clipPath id="16cfd7ad6e"><path d="M 39 96 L 150 96 L 150 150 L 39 150 Z M 39 96 " clip-rule="nonzero"/></clipPath><clipPath id="c3a7429cce"><path d="M 75 0 C 116.421875 0 150 33.578125 150 75 C 150 116.421875 116.421875 150 75 150 C 33.578125 150 0 116.421875 0 75 C 0 33.578125 33.578125 0 75 0 Z M 75 0 " clip-rule="evenodd"/></clipPath><clipPath id="b0d93b18f6"><path d="M 117 60 L 150 60 L 150 150 L 117 150 Z M 117 60 " clip-rule="nonzero"/></clipPath><clipPath id="0d27c36287"><path d="M 75 0 C 116.421875 0 150 33.578125 150 75 C 150 116.421875 116.421875 150 75 150 C 33.578125 150 0 116.421875 0 75 C 0 33.578125 33.578125 0 75 0 Z M 75 0 " clip-rule="evenodd"/></clipPath><clipPath id="aa2a9ab68d"><path d="M 100 97 L 150 97 L 150 150 L 100 150 Z M 100 97 " clip-rule="nonzero"/></clipPath><clipPath id="ba41452cf4"><path d="M 75 0 C 116.421875 0 150 33.578125 150 75 C 150 116.421875 116.421875 150 75 150 C 33.578125 150 0 116.421875 0 75 C 0 33.578125 33.578125 0 75 0 Z M 75 0 " clip-rule="evenodd"/></clipPath><clipPath id="9cd2d26f2c"><path d="M 81 106 L 150 106 L 150 150 L 81 150 Z M 81 106 " clip-rule="nonzero"/></clipPath><clipPath id="2ee2272c7d"><path d="M 75 0 C 116.421875 0 150 33.578125 150 75 C 150 116.421875 116.421875 150 75 150 C 33.578125 150 0 116.421875 0 75 C 0 33.578125 33.578125 0 75 0 Z M 75 0 " clip-rule="evenodd"/></clipPath><clipPath id="0a09d4d815"><path d="M 117 59 L 150 59 L 150 150 L 117 150 Z M 117 59 " clip-rule="nonzero"/></clipPath><clipPath id="e35c6f5d27"><path d="M 75 0 C 116.421875 0 150 33.578125 150 75 C 150 116.421875 116.421875 150 75 150 C 33.578125 150 0 116.421875 0 75 C 0 33.578125 33.578125 0 75 0 Z M 75 0 " clip-rule="evenodd"/></clipPath><clipPath id="0c91afa116"><path d="M 36 95 L 150 95 L 150 150 L 36 150 Z M 36 95 " clip-rule="nonzero"/></clipPath><clipPath id="405323c4bb"><path d="M 75 0 C 116.421875 0 150 33.578125 150 75 C 150 116.421875 116.421875 150 75 150 C 33.578125 150 0 116.421875 0 75 C 0 33.578125 33.578125 0 75 0 Z M 75 0 " clip-rule="evenodd"/></clipPath><clipPath id="b28be43c3d"><path d="M 32 105 L 150 105 L 150 150 L 32 150 Z M 32 105 " clip-rule="nonzero"/></clipPath><clipPath id="72fdffc4a2"><path d="M 75 0 C 116.421875 0 150 33.578125 150 75 C 150 116.421875 116.421875 150 75 150 C 33.578125 150 0 116.421875 0 75 C 0 33.578125 33.578125 0 75 0 Z M 75 0 " clip-rule="evenodd"/></clipPath><clipPath id="78f00ebbf4"><path d="M 116 104 L 150 104 L 150 150 L 116 150 Z M 116 104 " clip-rule="nonzero"/></clipPath><clipPath id="9063842f59"><path d="M 75 0 C 116.421875 0 150 33.578125 150 75 C 150 116.421875 116.421875 150 75 150 C 33.578125 150 0 116.421875 0 75 C 0 33.578125 33.578125 0 75 0 Z M 75 0 " clip-rule="evenodd"/></clipPath><clipPath id="784d11f01f"><path d="M 33 106 L 150 106 L 150 150 L 33 150 Z M 33 106 " clip-rule="nonzero"/></clipPath><clipPath id="5a515be4a6"><path d="M 75 0 C 116.421875 0 150 33.578125 150 75 C 150 116.421875 116.421875 150 75 150 C 33.578125 150 0 116.421875 0 75 C 0 33.578125 33.578125 0 75 0 Z M 75 0 " clip-rule="evenodd"/></clipPath><clipPath id="54213c8ee8"><path d="M 32 43 L 118 43 L 118 107 L 32 107 Z M 32 43 " clip-rule="nonzero"/></clipPath><clipPath id="be13263f2d"><path d="M 75 0 C 116.421875 0 150 33.578125 150 75 C 150 116.421875 116.421875 150 75 150 C 33.578125 150 0 116.421875 0 75 C 0 33.578125 33.578125 0 75 0 Z M 75 0 " clip-rule="evenodd"/></clipPath></defs><path fill="#f38f41" d="M 75 0 C 116.421875 0 150 33.578125 150 75 C 150 116.421875 116.421875 150 75 150 C 33.578125 150 0 116.421875 0 75 C 0 33.578125 33.578125 0 75 0 Z M 75 0 " fill-opacity="1" fill-rule="evenodd"/><g clip-path="url(#44d3ea1379)"><g clip-path="url(#5c21851c46)"><path fill="#f57435" d="M 110.535156 54.253906 L 299.847656 243.570312 L 300.003906 243.738281 L 300.136719 243.921875 L 300.25 244.121094 L 300.34375 244.332031 L 300.410156 244.558594 L 300.453125 244.800781 L 300.46875 245.058594 L 111.15625 55.742188 L 111.140625 55.488281 L 111.097656 55.246094 L 111.03125 55.019531 L 110.9375 54.804688 L 110.824219 54.609375 L 110.6875 54.425781 Z M 110.535156 54.253906 " fill-opacity="1" fill-rule="evenodd"/></g></g><g clip-path="url(#fd44f6cbfe)"><g clip-path="url(#37ea71ba2d)"><path fill="#f57435" d="M 111.15625 55.742188 L 300.46875 245.058594 L 300.46875 246.503906 L 111.15625 57.1875 Z M 111.15625 55.742188 " fill-opacity="1" fill-rule="evenodd"/></g></g><g clip-path="url(#52ba8cf043)"><g clip-path="url(#218115d301)"><path fill="#f57435" d="M 36 58.609375 L 225.3125 247.925781 L 225.3125 284.59375 L 36 95.28125 Z M 36 58.609375 " fill-opacity="1" fill-rule="evenodd"/></g></g><g clip-path="url(#d51db705d0)"><g clip-path="url(#ecb245d0b9)"><path fill="#f57435" d="M 72.832031 58.578125 L 262.144531 247.894531 L 262.144531 294.328125 L 72.832031 105.015625 Z M 72.832031 58.578125 " fill-opacity="1" fill-rule="evenodd"/></g></g><g clip-path="url(#85f660c35b)"><g clip-path="url(#1389031df3)"><path fill="#f57435" d="M 97.574219 86.679688 L 286.890625 275.996094 L 286.871094 276.242188 L 286.804688 276.464844 L 286.691406 276.675781 L 286.515625 276.878906 L 286.273438 277.085938 L 285.953125 277.3125 L 285.554688 277.566406 L 285.0625 277.859375 L 95.75 88.542969 L 96.238281 88.253906 L 96.640625 88 L 96.957031 87.773438 L 97.199219 87.5625 L 97.375 87.359375 L 97.492188 87.152344 L 97.554688 86.929688 Z M 97.574219 86.679688 " fill-opacity="1" fill-rule="evenodd"/></g></g><g clip-path="url(#3c0f656dc5)"><g clip-path="url(#64c80b7a3e)"><path fill="#f57435" d="M 83.472656 102.105469 L 272.785156 291.417969 L 272.613281 291.5 L 272.441406 291.578125 L 272.273438 291.660156 L 271.945312 291.816406 L 271.785156 291.890625 L 271.628906 291.96875 L 271.46875 292.046875 L 271.011719 292.269531 L 270.714844 292.417969 L 270.570312 292.488281 L 270.425781 292.5625 L 270.285156 292.632812 L 80.972656 103.320312 L 81.113281 103.246094 L 81.402344 103.105469 L 81.847656 102.882812 L 82.003906 102.808594 L 82.15625 102.730469 L 82.3125 102.65625 L 82.632812 102.5 L 82.960938 102.34375 L 83.128906 102.265625 L 83.300781 102.1875 Z M 83.472656 102.105469 " fill-opacity="1" fill-rule="evenodd"/></g></g><g clip-path="url(#fb09c96036)"><g clip-path="url(#f7544c8bbe)"><path fill="#f57435" d="M 94.035156 89.648438 L 283.347656 278.960938 L 264.992188 293.125 L 75.679688 103.808594 Z M 94.035156 89.648438 " fill-opacity="1" fill-rule="evenodd"/></g></g><g clip-path="url(#bc1afc913b)"><g clip-path="url(#4d066c9545)"><path fill="#f57435" d="M 100.257812 97.636719 L 289.570312 286.953125 L 289.503906 286.960938 L 289.378906 286.980469 L 289.203125 287.007812 L 288.976562 287.046875 L 288.707031 287.089844 L 288.386719 287.144531 L 288.027344 287.207031 L 287.628906 287.277344 L 287.191406 287.355469 L 286.722656 287.445312 L 286.21875 287.539062 L 285.6875 287.644531 L 285.128906 287.757812 L 284.542969 287.878906 L 283.941406 288.003906 L 283.316406 288.144531 L 282.675781 288.289062 L 282.019531 288.441406 L 281.351562 288.601562 L 280.675781 288.773438 L 279.992188 288.949219 L 279.308594 289.136719 L 278.621094 289.328125 L 277.933594 289.53125 L 277.25 289.738281 L 276.574219 289.957031 L 275.90625 290.179688 L 275.246094 290.414062 L 274.605469 290.652344 L 273.976562 290.902344 L 273.371094 291.15625 L 272.785156 291.417969 L 83.472656 102.105469 L 84.058594 101.84375 L 84.664062 101.585938 L 85.292969 101.339844 L 85.933594 101.097656 L 86.589844 100.867188 L 87.261719 100.640625 L 87.9375 100.425781 L 88.621094 100.214844 L 89.304688 100.015625 L 89.996094 99.820312 L 90.679688 99.636719 L 91.363281 99.460938 L 92.039062 99.289062 L 92.707031 99.128906 L 93.359375 98.972656 L 94.003906 98.828125 L 94.625 98.691406 L 95.230469 98.5625 L 95.816406 98.441406 L 96.375 98.328125 L 96.90625 98.226562 L 97.410156 98.128906 L 97.878906 98.042969 L 98.316406 97.964844 L 98.714844 97.894531 L 99.074219 97.832031 L 99.390625 97.777344 L 99.664062 97.730469 L 99.890625 97.695312 L 100.066406 97.667969 L 100.191406 97.648438 Z M 100.257812 97.636719 " fill-opacity="1" fill-rule="evenodd"/></g></g><g clip-path="url(#e950fe71b2)"><g clip-path="url(#eef7275a3f)"><path fill="#f57435" d="M 96.449219 44.042969 L 285.761719 233.359375 L 285.910156 233.523438 L 286.054688 233.710938 L 286.199219 233.914062 L 286.339844 234.136719 L 286.464844 234.371094 L 286.582031 234.617188 L 286.6875 234.871094 L 286.769531 235.132812 L 286.835938 235.394531 L 286.875 235.660156 L 286.890625 235.921875 L 97.574219 46.609375 L 97.5625 46.347656 L 97.519531 46.082031 L 97.457031 45.820312 L 97.371094 45.558594 L 97.269531 45.304688 L 97.152344 45.058594 L 97.023438 44.824219 L 96.886719 44.601562 L 96.742188 44.394531 L 96.597656 44.210938 Z M 96.449219 44.042969 " fill-opacity="1" fill-rule="evenodd"/></g></g><g clip-path="url(#0fa5379b50)"><g clip-path="url(#37d6ca1f71)"><path fill="#f57435" d="M 95.75 88.542969 L 285.0625 277.859375 L 284.859375 277.976562 L 284.648438 278.097656 L 284.4375 278.226562 L 284.21875 278.359375 L 284.003906 278.5 L 283.78125 278.644531 L 283.566406 278.800781 L 283.347656 278.960938 L 94.035156 89.648438 L 94.253906 89.484375 L 94.46875 89.332031 L 94.6875 89.1875 L 94.90625 89.046875 L 95.121094 88.914062 L 95.335938 88.785156 L 95.546875 88.664062 Z M 95.75 88.542969 " fill-opacity="1" fill-rule="evenodd"/></g></g><g clip-path="url(#f9ab308dcf)"><g clip-path="url(#88bb396cbb)"><path fill="#f57435" d="M 97.574219 46.609375 L 286.890625 235.921875 L 286.890625 275.996094 L 97.574219 86.679688 Z M 97.574219 46.609375 " fill-opacity="1" fill-rule="evenodd"/></g></g><g clip-path="url(#6363554c46)"><g clip-path="url(#87e8ad285b)"><path fill="#f57435" d="M 100.46875 97.621094 L 289.785156 286.9375 L 289.703125 286.9375 L 289.675781 286.941406 L 289.652344 286.941406 L 289.570312 286.953125 L 100.257812 97.636719 L 100.285156 97.632812 L 100.3125 97.632812 L 100.339844 97.628906 L 100.363281 97.625 L 100.417969 97.625 L 100.445312 97.621094 Z M 100.46875 97.621094 " fill-opacity="1" fill-rule="evenodd"/></g></g><g clip-path="url(#5cdfb83b87)"><g clip-path="url(#5b191bb7b0)"><path fill="#f57435" d="M 111.15625 57.1875 L 300.46875 246.503906 L 300.46875 284.59375 L 111.15625 95.28125 Z M 111.15625 57.1875 " fill-opacity="1" fill-rule="evenodd"/></g></g><g clip-path="url(#7a2893399b)"><g clip-path="url(#af3cdd7a5f)"><path fill="#f57435" d="M 111.15625 95.28125 L 300.46875 284.59375 L 300.457031 284.832031 L 300.421875 285.066406 L 300.363281 285.289062 L 300.285156 285.503906 L 300.1875 285.710938 L 300.070312 285.902344 L 299.933594 286.082031 L 299.78125 286.25 L 299.617188 286.402344 L 299.433594 286.535156 L 299.242188 286.652344 L 299.039062 286.753906 L 298.820312 286.832031 L 298.597656 286.890625 L 298.367188 286.925781 L 298.125 286.9375 L 108.8125 97.621094 L 109.050781 97.609375 L 109.285156 97.574219 L 109.507812 97.515625 L 109.722656 97.4375 L 109.929688 97.339844 L 110.121094 97.222656 L 110.300781 97.085938 L 110.46875 96.9375 L 110.621094 96.769531 L 110.753906 96.589844 L 110.871094 96.394531 L 110.972656 96.191406 L 111.050781 95.976562 L 111.109375 95.753906 L 111.144531 95.519531 Z M 111.15625 95.28125 " fill-opacity="1" fill-rule="evenodd"/></g></g><g clip-path="url(#2052bb092c)"><g clip-path="url(#cf70fea75e)"><path fill="#f57435" d="M 72.832031 105.015625 L 262.144531 294.328125 L 261.910156 294.253906 L 261.671875 294.167969 L 261.433594 294.078125 L 261.1875 293.984375 L 260.9375 293.878906 L 260.683594 293.765625 L 260.425781 293.648438 L 260.15625 293.527344 L 70.84375 104.210938 L 71.109375 104.335938 L 71.371094 104.453125 L 71.625 104.566406 L 71.875 104.667969 L 72.117188 104.765625 L 72.359375 104.855469 L 72.597656 104.9375 Z M 72.832031 105.015625 " fill-opacity="1" fill-rule="evenodd"/></g></g><g clip-path="url(#c74bedbd96)"><g clip-path="url(#dbbc72b00f)"><path fill="#f57435" d="M 70.84375 104.210938 L 260.15625 293.527344 L 259.96875 293.4375 L 259.777344 293.34375 L 259.582031 293.25 L 259.382812 293.152344 L 259.179688 293.050781 L 258.972656 292.945312 L 258.761719 292.839844 L 258.542969 292.734375 L 69.230469 103.417969 L 69.445312 103.527344 L 69.660156 103.632812 L 69.867188 103.738281 L 70.070312 103.835938 L 70.269531 103.933594 L 70.464844 104.03125 L 70.65625 104.121094 Z M 70.84375 104.210938 " fill-opacity="1" fill-rule="evenodd"/></g></g><g clip-path="url(#77609a2e4d)"><g clip-path="url(#5d8a417431)"><path fill="#f57435" d="M 69.230469 103.417969 L 258.542969 292.734375 L 258.238281 292.578125 L 258.082031 292.503906 L 257.921875 292.421875 L 257.761719 292.34375 L 257.597656 292.265625 L 257.433594 292.183594 L 257.097656 292.019531 L 256.925781 291.933594 L 256.753906 291.851562 L 256.214844 291.59375 L 255.839844 291.421875 L 66.527344 102.105469 L 66.714844 102.195312 L 67.082031 102.367188 L 67.261719 102.453125 L 67.4375 102.535156 L 67.613281 102.621094 L 67.785156 102.703125 L 68.121094 102.867188 L 68.449219 103.03125 L 68.609375 103.109375 L 68.765625 103.1875 L 68.925781 103.265625 L 69.078125 103.34375 Z M 69.230469 103.417969 " fill-opacity="1" fill-rule="evenodd"/></g></g><g clip-path="url(#806ddceaa2)"><g clip-path="url(#a38fb2498e)"><path fill="#f57435" d="M 66.527344 102.105469 L 255.839844 291.421875 L 255.253906 291.15625 L 254.648438 290.902344 L 254.019531 290.652344 L 253.378906 290.414062 L 252.71875 290.179688 L 252.050781 289.957031 L 251.375 289.738281 L 250.691406 289.53125 L 250.003906 289.328125 L 249.316406 289.136719 L 248.632812 288.949219 L 247.949219 288.773438 L 247.273438 288.601562 L 246.605469 288.441406 L 245.949219 288.289062 L 245.308594 288.144531 L 244.6875 288.007812 L 244.082031 287.878906 L 243.496094 287.757812 L 242.9375 287.644531 L 242.40625 287.539062 L 241.902344 287.445312 L 241.433594 287.355469 L 240.996094 287.277344 L 240.597656 287.207031 L 240.238281 287.144531 L 239.921875 287.089844 L 239.648438 287.046875 L 239.421875 287.007812 L 239.246094 286.980469 L 239.121094 286.960938 L 239.054688 286.953125 L 49.738281 97.636719 L 49.808594 97.648438 L 49.933594 97.667969 L 50.109375 97.695312 L 50.332031 97.730469 L 50.605469 97.777344 L 50.925781 97.832031 L 51.285156 97.894531 L 51.683594 97.964844 L 52.121094 98.042969 L 52.589844 98.128906 L 53.09375 98.226562 L 53.625 98.328125 L 54.183594 98.441406 L 54.765625 98.5625 L 55.371094 98.691406 L 55.996094 98.828125 L 56.636719 98.972656 L 57.292969 99.128906 L 57.960938 99.289062 L 58.636719 99.460938 L 59.316406 99.636719 L 60.003906 99.820312 L 60.691406 100.015625 L 61.378906 100.21875 L 62.0625 100.425781 L 62.738281 100.644531 L 63.40625 100.867188 L 64.0625 101.101562 L 64.707031 101.339844 L 65.335938 101.589844 L 65.941406 101.84375 Z M 66.527344 102.105469 " fill-opacity="1" fill-rule="evenodd"/><path fill="#f57435" d="M 49.738281 97.636719 L 239.054688 286.953125 L 238.972656 286.941406 L 238.949219 286.941406 L 238.921875 286.9375 L 238.84375 286.9375 L 49.527344 97.621094 L 49.554688 97.621094 L 49.582031 97.625 L 49.609375 97.625 L 49.632812 97.628906 L 49.660156 97.628906 L 49.714844 97.636719 Z M 49.738281 97.636719 " fill-opacity="1" fill-rule="evenodd"/></g></g><g clip-path="url(#47b3364b50)"><g clip-path="url(#36641f5388)"><path fill="#f57435" d="M 49.527344 97.621094 L 238.84375 286.9375 L 230.5 286.9375 L 41.1875 97.621094 Z M 49.527344 97.621094 " fill-opacity="1" fill-rule="evenodd"/></g></g><g clip-path="url(#16cfd7ad6e)"><g clip-path="url(#c3a7429cce)"><path fill="#f57435" d="M 41.1875 97.621094 L 230.5 286.9375 L 230.261719 286.925781 L 230.027344 286.890625 L 229.804688 286.832031 L 229.589844 286.753906 L 229.382812 286.652344 L 229.191406 286.535156 L 229.011719 286.402344 L 228.84375 286.25 L 39.53125 96.9375 L 39.695312 97.085938 L 39.875 97.222656 L 40.070312 97.339844 L 40.273438 97.4375 L 40.488281 97.515625 L 40.714844 97.574219 L 40.945312 97.609375 Z M 41.1875 97.621094 " fill-opacity="1" fill-rule="evenodd"/></g></g><g clip-path="url(#b0d93b18f6)"><g clip-path="url(#0d27c36287)"><path fill="#f57435" d="M 117.667969 60.164062 L 306.980469 249.480469 L 306.980469 294.125 L 117.667969 104.8125 Z M 117.667969 60.164062 " fill-opacity="1" fill-rule="evenodd"/></g></g><g clip-path="url(#aa2a9ab68d)"><g clip-path="url(#ba41452cf4)"><path fill="#f57435" d="M 108.8125 97.621094 L 298.125 286.9375 L 289.785156 286.9375 L 100.46875 97.621094 Z M 108.8125 97.621094 " fill-opacity="1" fill-rule="evenodd"/></g></g><g clip-path="url(#9cd2d26f2c)"><g clip-path="url(#2ee2272c7d)"><path fill="#f57435" d="M 116.113281 106.367188 L 305.425781 295.679688 L 270.550781 295.679688 L 81.234375 106.367188 Z M 116.113281 106.367188 " fill-opacity="1" fill-rule="evenodd"/></g></g><g clip-path="url(#0a09d4d815)"><g clip-path="url(#e35c6f5d27)"><path fill="#f57435" d="M 117.210938 59.066406 L 306.523438 248.378906 L 306.714844 248.609375 L 306.859375 248.875 L 306.949219 249.167969 L 306.980469 249.480469 L 117.667969 60.164062 L 117.636719 59.851562 L 117.542969 59.5625 L 117.402344 59.296875 Z M 117.210938 59.066406 " fill-opacity="1" fill-rule="evenodd"/></g></g><g clip-path="url(#0c91afa116)"><g clip-path="url(#405323c4bb)"><path fill="#f57435" d="M 36 95.28125 L 225.3125 284.59375 L 225.339844 285.125 L 225.417969 285.636719 L 225.546875 286.136719 L 225.722656 286.609375 L 225.941406 287.066406 L 226.199219 287.492188 L 226.5 287.890625 L 226.832031 288.261719 L 37.519531 98.945312 L 37.183594 98.578125 L 36.886719 98.179688 L 36.625 97.75 L 36.40625 97.296875 L 36.234375 96.820312 L 36.105469 96.324219 L 36.027344 95.808594 Z M 36 95.28125 " fill-opacity="1" fill-rule="evenodd"/></g></g><g clip-path="url(#b28be43c3d)"><g clip-path="url(#72fdffc4a2)"><path fill="#f57435" d="M 33.886719 106.367188 L 223.203125 295.679688 L 222.886719 295.648438 L 222.597656 295.558594 L 222.332031 295.414062 L 222.101562 295.222656 L 32.789062 105.910156 L 33.019531 106.101562 L 33.285156 106.242188 L 33.574219 106.335938 Z M 33.886719 106.367188 " fill-opacity="1" fill-rule="evenodd"/></g></g><g clip-path="url(#78f00ebbf4)"><g clip-path="url(#9063842f59)"><path fill="#f57435" d="M 117.667969 104.8125 L 306.980469 294.125 L 306.949219 294.4375 L 306.859375 294.730469 L 306.714844 294.992188 L 306.523438 295.222656 L 306.292969 295.414062 L 306.03125 295.558594 L 305.738281 295.648438 L 305.425781 295.679688 L 116.113281 106.367188 L 116.425781 106.335938 L 116.714844 106.242188 L 116.980469 106.101562 L 117.210938 105.910156 L 117.402344 105.679688 L 117.542969 105.414062 L 117.636719 105.125 Z M 117.667969 104.8125 " fill-opacity="1" fill-rule="evenodd"/></g></g><g clip-path="url(#784d11f01f)"><g clip-path="url(#5a515be4a6)"><path fill="#f57435" d="M 68.761719 106.367188 L 258.078125 295.679688 L 223.203125 295.679688 L 33.886719 106.367188 Z M 68.761719 106.367188 " fill-opacity="1" fill-rule="evenodd"/></g></g><g clip-path="url(#54213c8ee8)"><g clip-path="url(#be13263f2d)"><path fill="#f57435" d="M 100.417969 52.984375 C 103.113281 52.898438 105.851562 53.035156 108.632812 53.390625 C 109.890625 53.550781 111.15625 54.339844 111.15625 55.742188 L 111.15625 95.28125 C 111.15625 96.570312 110.105469 97.621094 108.8125 97.621094 L 100.46875 97.621094 C 100.398438 97.621094 100.328125 97.628906 100.257812 97.636719 C 99.828125 97.703125 89.601562 99.261719 83.472656 102.105469 C 82.546875 102.535156 81.722656 102.941406 80.972656 103.320312 L 95.773438 91.902344 C 96.199219 91.574219 96.695312 91.285156 97.175781 91.003906 C 98.621094 90.167969 100.417969 89.121094 100.417969 86.683594 Z M 97.574219 46.609375 L 97.574219 86.683594 C 97.574219 87.386719 97.1875 87.710938 95.75 88.542969 C 95.214844 88.855469 94.609375 89.207031 94.035156 89.648438 L 75.675781 103.808594 L 75.675781 57.921875 L 95.730469 43.675781 C 95.765625 43.648438 95.796875 43.632812 95.8125 43.632812 C 96.324219 43.632812 97.574219 45.222656 97.574219 46.609375 Z M 72.832031 58.578125 L 72.832031 105.015625 C 72.207031 104.824219 71.5625 104.550781 70.84375 104.210938 C 70.347656 103.976562 69.8125 103.710938 69.230469 103.417969 C 68.421875 103.015625 67.535156 102.574219 66.527344 102.105469 C 60.398438 99.261719 50.171875 97.703125 49.738281 97.636719 C 49.671875 97.628906 49.597656 97.621094 49.527344 97.621094 L 41.1875 97.625 C 39.894531 97.625 38.84375 96.570312 38.84375 95.28125 L 38.84375 55.742188 C 38.84375 54.339844 40.109375 53.550781 41.367188 53.390625 C 43.609375 53.105469 45.847656 52.957031 48.015625 52.957031 C 56.855469 52.957031 63.117188 55.289062 67.683594 56.988281 C 69.796875 57.773438 71.433594 58.382812 72.832031 58.578125 Z M 117.667969 60.164062 L 117.667969 104.8125 C 117.667969 105.667969 116.96875 106.367188 116.113281 106.367188 L 81.234375 106.367188 L 82.039062 105.964844 C 82.824219 105.574219 83.6875 105.140625 84.667969 104.6875 C 90.117188 102.15625 99.496094 100.636719 100.578125 100.46875 L 108.8125 100.46875 C 111.671875 100.46875 114 98.140625 114 95.28125 L 114 58.609375 L 116.113281 58.609375 C 116.96875 58.609375 117.667969 59.308594 117.667969 60.164062 Z M 41.1875 100.46875 L 49.421875 100.46875 C 50.503906 100.636719 59.878906 102.15625 65.332031 104.6875 C 66.3125 105.140625 67.175781 105.574219 67.957031 105.964844 L 68.058594 106.015625 L 68.695312 106.332031 L 68.765625 106.367188 L 33.886719 106.367188 C 33.03125 106.367188 32.332031 105.667969 32.332031 104.8125 L 32.332031 60.167969 C 32.332031 59.308594 33.03125 58.609375 33.886719 58.609375 L 36 58.609375 L 36 95.28125 C 36 98.140625 38.324219 100.46875 41.1875 100.46875 Z M 41.1875 100.46875 " fill-opacity="1" fill-rule="evenodd"/></g></g><path fill="#ffffff" d="M 72.832031 105.015625 L 72.832031 58.578125 C 71.433594 58.382812 69.796875 57.773438 67.683594 56.988281 C 63.117188 55.289062 56.855469 52.957031 48.015625 52.957031 C 45.847656 52.957031 43.609375 53.105469 41.367188 53.390625 C 40.109375 53.550781 38.84375 54.339844 38.84375 55.742188 L 38.84375 57.140625 C 38.84375 57.15625 38.84375 57.171875 38.84375 57.1875 L 38.84375 95.28125 C 38.84375 96.574219 39.894531 97.625 41.1875 97.625 L 49.527344 97.625 C 49.597656 97.625 49.671875 97.628906 49.738281 97.636719 C 50.171875 97.703125 60.398438 99.261719 66.527344 102.105469 C 67.535156 102.574219 68.421875 103.015625 69.230469 103.417969 C 69.8125 103.710938 70.347656 103.976562 70.84375 104.210938 C 71.5625 104.550781 72.207031 104.824219 72.832031 105.015625 Z M 72.832031 105.015625 " fill-opacity="1" fill-rule="evenodd"/><path fill="#ffffff" d="M 49.421875 100.46875 L 41.1875 100.46875 C 38.324219 100.46875 36 98.140625 36 95.28125 L 36 58.609375 L 33.886719 58.609375 C 33.03125 58.609375 32.332031 59.308594 32.332031 60.164062 L 32.332031 104.8125 C 32.332031 105.667969 33.03125 106.367188 33.886719 106.367188 L 68.761719 106.367188 C 68.742188 106.355469 68.71875 106.34375 68.695312 106.332031 C 68.488281 106.226562 68.277344 106.125 68.058594 106.015625 C 68.027344 106 67.992188 105.980469 67.957031 105.964844 C 67.175781 105.574219 66.3125 105.140625 65.332031 104.6875 C 59.878906 102.15625 50.503906 100.636719 49.421875 100.46875 Z M 49.421875 100.46875 " fill-opacity="1" fill-rule="evenodd"/><path fill="#ffffff" d="M 97.175781 91.003906 C 96.695312 91.285156 96.199219 91.574219 95.773438 91.902344 L 80.972656 103.320312 C 81.722656 102.941406 82.546875 102.535156 83.472656 102.105469 C 89.601562 99.261719 99.828125 97.703125 100.257812 97.636719 C 100.328125 97.628906 100.398438 97.621094 100.46875 97.621094 L 108.8125 97.621094 C 110.105469 97.621094 111.15625 96.570312 111.15625 95.28125 L 111.15625 55.742188 C 111.15625 54.339844 109.890625 53.550781 108.632812 53.390625 C 105.851562 53.035156 103.113281 52.898438 100.417969 52.984375 L 100.417969 86.679688 C 100.417969 89.121094 98.621094 90.167969 97.175781 91.003906 Z M 97.175781 91.003906 " fill-opacity="1" fill-rule="evenodd"/><path fill="#ffffff" d="M 94.035156 89.648438 C 94.609375 89.207031 95.214844 88.855469 95.75 88.542969 C 97.1875 87.710938 97.574219 87.386719 97.574219 86.679688 L 97.574219 46.609375 C 97.574219 45.222656 96.324219 43.632812 95.8125 43.632812 C 95.796875 43.632812 95.765625 43.648438 95.730469 43.675781 L 75.675781 57.921875 L 75.675781 103.808594 Z M 94.035156 89.648438 " fill-opacity="1" fill-rule="evenodd"/><path fill="#ffffff" d="M 114 95.28125 C 114 98.140625 111.671875 100.46875 108.8125 100.46875 L 100.582031 100.46875 C 99.496094 100.636719 90.117188 102.15625 84.667969 104.6875 C 83.6875 105.140625 82.824219 105.574219 82.039062 105.964844 L 81.238281 106.367188 L 116.113281 106.367188 C 116.96875 106.367188 117.667969 105.667969 117.667969 104.8125 L 117.667969 60.164062 C 117.667969 59.308594 116.96875 58.609375 116.113281 58.609375 L 114 58.609375 Z M 114 95.28125 " fill-opacity="1" fill-rule="evenodd"/></svg>